PathFileType	4	(X/Y/Z)	intermediate\S1_nor_med_left\tmpk2z6hi7d.trc
DataRate	CameraRate	NumFrames	NumMarkers	Units	OrigDataRate	OrigDataStartFrame	OrigNumFrames
250.0	250.0	6	18	mm	250.0	1920	7677
Frame#	Time	c7			r_should			l_should			clavicle			r_upa			r_elb_l			r_elb_m			r_low			r_wri_l			r_wri_m			r_met			l_upa			l_elb_l			l_elb_m			l_low			l_wri_l			l_wri_m			l_met			
		X	Y	Z	X	Y	Z	X	Y	Z	X	Y	Z	X	Y	Z	X	Y	Z	X	Y	Z	X	Y	Z	X	Y	Z	X	Y	Z	X	Y	Z	X	Y	Z	X	Y	Z	X	Y	Z	X	Y	Z	X	Y	Z	X	Y	Z	X	Y	Z	
1920	7.676000	908.629456	1418.597656	73.139412	976.266602	1357.525757	261.380005	972.476501	1336.904297	-113.432716	1046.166870	1297.562378	72.808083	977.743042	1144.752075	311.070465	1001.099121	1042.900391	317.516388	925.117615	1025.394043	246.717529	954.663147	913.819580	333.014069	1033.550293	823.087708	305.144867	964.849976	807.932617	322.524933	1068.457520	747.180115	324.271790	975.091064	1111.204712	-133.697418	982.576416	1029.838745	-145.995392	949.281189	1002.871521	-51.062866	985.842834	880.779297	-118.622047	1072.403076	817.566772	-140.274948	1036.262695	794.424988	-82.474930	1084.220459	748.981079	-165.015778	
1921	7.680000	908.661011	1418.567383	72.951530	976.146240	1357.574463	261.294464	972.767517	1336.836792	-113.516937	1046.261475	1297.601807	72.814987	977.690735	1144.806030	311.016632	1001.071228	1042.961548	317.486023	925.156921	1025.406738	246.647125	954.656860	913.865234	332.982117	1033.582886	823.150696	305.169769	964.868164	807.982971	322.519470	1068.491333	747.243042	324.320038	975.828735	1111.085205	-133.567078	983.404114	1029.612549	-145.881989	949.902283	1002.690308	-50.884895	985.725891	880.450378	-118.490402	1071.804443	816.562195	-140.170059	1035.418091	793.588867	-82.447098	1083.074097	747.952515	-165.004318	
1922	7.684000	908.689209	1418.533325	72.766251	976.028137	1357.614014	261.201965	973.058899	1336.766724	-113.600967	1046.357422	1297.640747	72.817543	977.633545	1144.865479	310.966675	1001.039368	1043.023926	317.444855	925.181335	1025.412842	246.570801	954.645264	913.908508	332.944092	1033.612915	823.211121	305.187347	964.889404	808.029053	322.511719	1068.524536	747.307434	324.366882	976.543213	1110.970093	-133.448532	984.200073	1029.399170	-145.769714	950.764038	1002.469543	-50.563454	985.611511	880.141235	-118.353188	1071.208618	815.560669	-140.067078	1034.572632	792.824890	-82.414162	1081.952515	746.923706	-164.997604	
1923	7.688000	908.715149	1418.497192	72.578606	975.903809	1357.659546	261.105621	973.360291	1336.692871	-113.692352	1046.438599	1297.671387	72.813797	977.568298	1144.919189	310.903198	1000.996582	1043.075684	317.407684	925.205200	1025.409668	246.485672	954.632690	913.946777	332.903625	1033.640259	823.270386	305.203949	964.901917	808.077271	322.497894	1068.552979	747.373474	324.412201	977.250671	1110.853394	-133.334412	984.996826	1029.195068	-145.635696	951.904114	1002.202515	-50.106602	985.496521	879.847717	-118.220970	1070.609253	814.585571	-139.954651	1033.733398	792.101990	-82.385063	1080.832153	745.903076	-164.983093	
1924	7.692000	908.737732	1418.462769	72.393578	975.780884	1357.702271	261.011017	973.648621	1336.620239	-113.773987	1046.510498	1297.698975	72.810867	977.480896	1144.952637	310.837494	1000.956909	1043.126709	317.373352	925.216248	1025.406860	246.409073	954.613403	913.983276	332.868225	1033.663696	823.325745	305.220459	964.912231	808.122070	322.486816	1068.579468	747.434814	324.447998	977.971313	1110.724487	-133.218231	985.794678	1028.987427	-145.476898	952.714111	1002.024414	-49.809223	985.378723	879.567261	-118.095726	1070.004517	813.671204	-139.863220	1032.889771	791.382324	-82.354530	1079.720337	744.945007	-164.972946	
1925	7.696000	908.763367	1418.427002	72.218590	975.659790	1357.742065	260.919586	973.932495	1336.540405	-113.862953	1046.587646	1297.718872	72.813675	977.399841	1145.001221	310.790894	1000.913391	1043.179321	317.341034	925.220825	1025.413818	246.329437	954.592407	914.019287	332.828461	1033.679565	823.380493	305.234680	964.924438	808.166748	322.472229	1068.603638	747.496582	324.475464	978.672974	1110.606567	-133.103226	986.579224	1028.779053	-145.315521	953.470215	1001.883850	-49.530590	985.252808	879.314331	-117.982384	1069.395874	812.765625	-139.783859	1032.085449	790.696289	-82.309799	1078.610229	744.009705	-164.936081	
